<svg xmlns="http://www.w3.org/2000/svg" xmlns:xlink="http://www.w3.org/1999/xlink" width="500" zoomAndPan="magnify" viewBox="0 0 375 97.5" height="130" preserveAspectRatio="xMidYMid meet" version="1.0"><defs><g/></defs><g fill="#000000" fill-opacity="1"><g transform="translate(10.656887, 65.57937)"><g><path d="M 5.78125 -43.484375 L 5.609375 -44.296875 C 5.609375 -44.421875 5.640625 -44.539062 5.703125 -44.65625 C 6.960938 -47.1875 8.078125 -48.875 9.046875 -49.71875 C 11.328125 -51.65625 13.222656 -52.710938 14.734375 -52.890625 C 14.671875 -52.585938 14.640625 -52.253906 14.640625 -51.890625 C 14.640625 -48.398438 16.128906 -43.972656 19.109375 -38.609375 C 22.097656 -33.242188 24.976562 -29.023438 27.75 -25.953125 C 28.476562 -26.847656 30.226562 -29.375 33 -33.53125 C 35.769531 -37.695312 38.148438 -41.046875 40.140625 -43.578125 C 42.128906 -46.109375 43.953125 -48.234375 45.609375 -49.953125 C 47.265625 -51.671875 49.039062 -53.144531 50.9375 -54.375 C 52.84375 -55.613281 54.367188 -56.234375 55.515625 -56.234375 C 57.554688 -56.234375 58.578125 -55.054688 58.578125 -52.703125 C 58.578125 -48.910156 57.957031 -44.617188 56.71875 -39.828125 C 55.488281 -35.035156 54.148438 -30.800781 52.703125 -27.125 C 48.242188 -15.914062 45.382812 -7.566406 44.125 -2.078125 C 41.289062 0.753906 39.332031 2.171875 38.25 2.171875 C 38.0625 2.171875 37.910156 2.171875 37.796875 2.171875 C 38.640625 -1.085938 40.28125 -5.941406 42.71875 -12.390625 C 45.15625 -18.835938 47.15625 -24.832031 48.71875 -30.375 C 50.289062 -35.914062 51.078125 -41.039062 51.078125 -45.75 C 51.078125 -47.070312 50.597656 -47.734375 49.640625 -47.734375 L 49.546875 -47.734375 C 48.222656 -47.734375 46.65625 -46.796875 44.84375 -44.921875 C 43.03125 -43.054688 41.476562 -41.128906 40.1875 -39.140625 C 38.894531 -37.148438 37.429688 -34.738281 35.796875 -31.90625 C 34.171875 -29.082031 32.90625 -27.003906 32 -25.671875 C 31.09375 -24.410156 29.347656 -22.484375 26.765625 -19.890625 C 25.378906 -18.503906 24.113281 -17.8125 22.96875 -17.8125 C 21.757812 -17.8125 20.488281 -18.671875 19.15625 -20.390625 C 17.832031 -22.109375 16.734375 -23.945312 15.859375 -25.90625 C 14.992188 -27.863281 14.046875 -30.078125 13.015625 -32.546875 C 11.992188 -35.015625 11.332031 -36.519531 11.03125 -37.0625 C 10.363281 -34.175781 9.203125 -28.617188 7.546875 -20.390625 C 5.890625 -12.160156 4.1875 -4.878906 2.4375 1.453125 C -0.269531 4.035156 -2.890625 5.929688 -5.421875 7.140625 C -5.421875 6.597656 -4.671875 3.285156 -3.171875 -2.796875 C 2.796875 -26.847656 5.78125 -40.410156 5.78125 -43.484375 Z M 5.78125 -43.484375 "/></g></g></g><g fill="#000000" fill-opacity="1"><g transform="translate(70.953887, 65.57937)"><g><path d="M 30.921875 -56.234375 C 33.273438 -56.234375 35.773438 -54.96875 38.421875 -52.4375 C 41.078125 -49.90625 42.40625 -47.492188 42.40625 -45.203125 C 42.40625 -44.054688 41.289062 -42.535156 39.0625 -40.640625 C 36.832031 -38.742188 35.203125 -37.796875 34.171875 -37.796875 C 34.171875 -37.910156 34.171875 -38.03125 34.171875 -38.15625 C 34.171875 -40.5 33.144531 -42.800781 31.09375 -45.0625 C 29.050781 -47.320312 26.851562 -48.453125 24.5 -48.453125 C 21.25 -48.453125 18.128906 -47.1875 15.140625 -44.65625 C 12.160156 -42.125 9.828125 -38.867188 8.140625 -34.890625 C 6.453125 -30.921875 5.609375 -27.019531 5.609375 -23.1875 C 5.609375 -19.363281 6.070312 -15.957031 7 -12.96875 C 7.9375 -9.988281 9.550781 -7.488281 11.84375 -5.46875 C 14.132812 -3.445312 16.9375 -2.4375 20.25 -2.4375 C 26.632812 -2.4375 34.257812 -5.8125 43.125 -12.5625 C 42.882812 -11.539062 42.34375 -10.457031 41.5 -9.3125 C 40.65625 -8.164062 40.019531 -7.257812 39.59375 -6.59375 C 38.09375 -4.25 34.265625 -1.628906 28.109375 1.265625 C 23.109375 3.617188 18.5 4.796875 14.28125 4.796875 C 11.570312 4.796875 9.160156 4.128906 7.046875 2.796875 C 4.941406 1.472656 3.285156 -0.300781 2.078125 -2.53125 C -0.328125 -6.875 -1.53125 -12.023438 -1.53125 -17.984375 C -1.53125 -22.023438 -0.613281 -26.304688 1.21875 -30.828125 C 3.0625 -35.347656 5.441406 -39.476562 8.359375 -43.21875 C 11.285156 -46.957031 14.765625 -50.0625 18.796875 -52.53125 C 22.835938 -55 26.878906 -56.234375 30.921875 -56.234375 Z M 30.921875 -56.234375 "/></g></g></g><g fill="#000000" fill-opacity="1"><g transform="translate(123.902651, 47.234602)"><g><path d="M 6.703125 -12.421875 C 8.316406 -12.421875 9.582031 -12.035156 10.5 -11.265625 C 11.425781 -10.503906 11.890625 -9.445312 11.890625 -8.09375 C 11.890625 -6.75 11.425781 -5.691406 10.5 -4.921875 C 9.582031 -4.148438 8.316406 -3.765625 6.703125 -3.765625 L 3.640625 -3.765625 L 3.640625 0 L 1.859375 0 L 1.859375 -12.421875 Z M 6.65625 -5.3125 C 7.78125 -5.3125 8.640625 -5.550781 9.234375 -6.03125 C 9.828125 -6.507812 10.125 -7.195312 10.125 -8.09375 C 10.125 -8.988281 9.828125 -9.675781 9.234375 -10.15625 C 8.640625 -10.632812 7.78125 -10.875 6.65625 -10.875 L 3.640625 -10.875 L 3.640625 -5.3125 Z M 6.65625 -5.3125 "/></g></g></g><g fill="#000000" fill-opacity="1"><g transform="translate(153.83492, 47.234602)"><g><path d="M 7.46875 0.140625 C 6.21875 0.140625 5.085938 -0.132812 4.078125 -0.6875 C 3.078125 -1.238281 2.289062 -2 1.71875 -2.96875 C 1.144531 -3.9375 0.859375 -5.019531 0.859375 -6.21875 C 0.859375 -7.40625 1.144531 -8.484375 1.71875 -9.453125 C 2.289062 -10.429688 3.078125 -11.191406 4.078125 -11.734375 C 5.085938 -12.285156 6.21875 -12.5625 7.46875 -12.5625 C 8.71875 -12.5625 9.84375 -12.285156 10.84375 -11.734375 C 11.851562 -11.191406 12.640625 -10.4375 13.203125 -9.46875 C 13.773438 -8.5 14.0625 -7.414062 14.0625 -6.21875 C 14.0625 -5.007812 13.773438 -3.921875 13.203125 -2.953125 C 12.640625 -1.992188 11.851562 -1.238281 10.84375 -0.6875 C 9.84375 -0.132812 8.71875 0.140625 7.46875 0.140625 Z M 7.46875 -1.4375 C 8.382812 -1.4375 9.203125 -1.644531 9.921875 -2.0625 C 10.648438 -2.476562 11.222656 -3.046875 11.640625 -3.765625 C 12.066406 -4.492188 12.28125 -5.3125 12.28125 -6.21875 C 12.28125 -7.113281 12.066406 -7.925781 11.640625 -8.65625 C 11.222656 -9.382812 10.648438 -9.953125 9.921875 -10.359375 C 9.203125 -10.773438 8.382812 -10.984375 7.46875 -10.984375 C 6.5625 -10.984375 5.738281 -10.773438 5 -10.359375 C 4.257812 -9.953125 3.675781 -9.382812 3.25 -8.65625 C 2.832031 -7.925781 2.625 -7.113281 2.625 -6.21875 C 2.625 -5.3125 2.832031 -4.492188 3.25 -3.765625 C 3.675781 -3.046875 4.257812 -2.476562 5 -2.0625 C 5.738281 -1.644531 6.5625 -1.4375 7.46875 -1.4375 Z M 7.46875 -1.4375 "/></g></g></g><g fill="#000000" fill-opacity="1"><g transform="translate(331.628319, 66.046117)"><g><path d="M 4.90625 0.09375 C 4.09375 0.09375 3.359375 -0.0820312 2.703125 -0.4375 C 2.054688 -0.800781 1.550781 -1.296875 1.1875 -1.921875 C 0.820312 -2.554688 0.640625 -3.273438 0.640625 -4.078125 C 0.640625 -4.878906 0.820312 -5.59375 1.1875 -6.21875 C 1.550781 -6.851562 2.054688 -7.347656 2.703125 -7.703125 C 3.359375 -8.066406 4.09375 -8.25 4.90625 -8.25 C 5.707031 -8.25 6.429688 -8.066406 7.078125 -7.703125 C 7.722656 -7.347656 8.226562 -6.851562 8.59375 -6.21875 C 8.957031 -5.59375 9.140625 -4.878906 9.140625 -4.078125 C 9.140625 -3.273438 8.957031 -2.554688 8.59375 -1.921875 C 8.226562 -1.296875 7.722656 -0.800781 7.078125 -0.4375 C 6.429688 -0.0820312 5.707031 0.09375 4.90625 0.09375 Z M 4.90625 -1.203125 C 5.425781 -1.203125 5.894531 -1.320312 6.3125 -1.5625 C 6.726562 -1.800781 7.050781 -2.140625 7.28125 -2.578125 C 7.519531 -3.015625 7.640625 -3.515625 7.640625 -4.078125 C 7.640625 -4.648438 7.519531 -5.148438 7.28125 -5.578125 C 7.050781 -6.015625 6.726562 -6.351562 6.3125 -6.59375 C 5.894531 -6.832031 5.425781 -6.953125 4.90625 -6.953125 C 4.375 -6.953125 3.898438 -6.832031 3.484375 -6.59375 C 3.066406 -6.351562 2.738281 -6.015625 2.5 -5.578125 C 2.257812 -5.148438 2.140625 -4.648438 2.140625 -4.078125 C 2.140625 -3.515625 2.257812 -3.015625 2.5 -2.578125 C 2.738281 -2.140625 3.066406 -1.800781 3.484375 -1.5625 C 3.898438 -1.320312 4.375 -1.203125 4.90625 -1.203125 Z M 4.90625 -1.203125 "/></g></g></g><g fill="#000000" fill-opacity="1"><g transform="translate(185.103457, 47.234602)"><g><path d="M 10.171875 0 L 7.484375 -3.8125 C 7.160156 -3.789062 6.898438 -3.78125 6.703125 -3.78125 L 3.640625 -3.78125 L 3.640625 0 L 1.859375 0 L 1.859375 -12.421875 L 6.703125 -12.421875 C 8.316406 -12.421875 9.582031 -12.035156 10.5 -11.265625 C 11.425781 -10.503906 11.890625 -9.445312 11.890625 -8.09375 C 11.890625 -7.132812 11.648438 -6.316406 11.171875 -5.640625 C 10.703125 -4.960938 10.03125 -4.472656 9.15625 -4.171875 L 12.109375 0 Z M 6.65625 -5.296875 C 7.78125 -5.296875 8.640625 -5.535156 9.234375 -6.015625 C 9.828125 -6.503906 10.125 -7.195312 10.125 -8.09375 C 10.125 -8.988281 9.828125 -9.675781 9.234375 -10.15625 C 8.640625 -10.632812 7.78125 -10.875 6.65625 -10.875 L 3.640625 -10.875 L 3.640625 -5.296875 Z M 6.65625 -5.296875 "/></g></g></g><g fill="#000000" fill-opacity="1"><g transform="translate(345.539175, 66.046117)"><g><path d="M 2.8125 -6.796875 C 3.070312 -7.265625 3.453125 -7.625 3.953125 -7.875 C 4.460938 -8.125 5.078125 -8.25 5.796875 -8.25 L 5.796875 -6.8125 C 5.710938 -6.820312 5.597656 -6.828125 5.453125 -6.828125 C 4.648438 -6.828125 4.019531 -6.585938 3.5625 -6.109375 C 3.101562 -5.628906 2.875 -4.945312 2.875 -4.0625 L 2.875 0 L 1.40625 0 L 1.40625 -8.171875 L 2.8125 -8.171875 Z M 2.8125 -6.796875 "/></g></g></g><g fill="#000000" fill-opacity="1"><g transform="translate(214.749614, 47.234602)"><g><path d="M 7.421875 0.140625 C 6.179688 0.140625 5.0625 -0.132812 4.0625 -0.6875 C 3.0625 -1.238281 2.273438 -1.992188 1.703125 -2.953125 C 1.140625 -3.921875 0.859375 -5.007812 0.859375 -6.21875 C 0.859375 -7.414062 1.140625 -8.5 1.703125 -9.46875 C 2.273438 -10.4375 3.0625 -11.191406 4.0625 -11.734375 C 5.070312 -12.285156 6.195312 -12.5625 7.4375 -12.5625 C 8.40625 -12.5625 9.289062 -12.398438 10.09375 -12.078125 C 10.90625 -11.753906 11.59375 -11.269531 12.15625 -10.625 L 11 -9.515625 C 10.070312 -10.492188 8.910156 -10.984375 7.515625 -10.984375 C 6.585938 -10.984375 5.75 -10.773438 5 -10.359375 C 4.257812 -9.953125 3.675781 -9.382812 3.25 -8.65625 C 2.832031 -7.925781 2.625 -7.113281 2.625 -6.21875 C 2.625 -5.3125 2.832031 -4.492188 3.25 -3.765625 C 3.675781 -3.046875 4.257812 -2.476562 5 -2.0625 C 5.75 -1.644531 6.585938 -1.4375 7.515625 -1.4375 C 8.890625 -1.4375 10.050781 -1.929688 11 -2.921875 L 12.15625 -1.8125 C 11.59375 -1.175781 10.90625 -0.691406 10.09375 -0.359375 C 9.28125 -0.0234375 8.390625 0.140625 7.421875 0.140625 Z M 7.421875 0.140625 "/></g></g></g><g fill="#000000" fill-opacity="1"><g transform="translate(244.437675, 47.234602)"><g><path d="M 10.875 -1.546875 L 10.875 0 L 1.859375 0 L 1.859375 -12.421875 L 10.625 -12.421875 L 10.625 -10.875 L 3.640625 -10.875 L 3.640625 -7.0625 L 9.875 -7.0625 L 9.875 -5.5625 L 3.640625 -5.5625 L 3.640625 -1.546875 Z M 10.875 -1.546875 "/></g></g></g><g fill="#000000" fill-opacity="1"><g transform="translate(355.743509, 66.046117)"><g><path d="M 8.78125 -4.03125 C 8.78125 -3.914062 8.769531 -3.769531 8.75 -3.59375 L 2.125 -3.59375 C 2.21875 -2.875 2.53125 -2.296875 3.0625 -1.859375 C 3.601562 -1.421875 4.273438 -1.203125 5.078125 -1.203125 C 6.054688 -1.203125 6.84375 -1.53125 7.4375 -2.1875 L 8.25 -1.234375 C 7.882812 -0.796875 7.425781 -0.460938 6.875 -0.234375 C 6.320312 -0.015625 5.707031 0.09375 5.03125 0.09375 C 4.175781 0.09375 3.410156 -0.0820312 2.734375 -0.4375 C 2.066406 -0.789062 1.550781 -1.285156 1.1875 -1.921875 C 0.820312 -2.554688 0.640625 -3.273438 0.640625 -4.078125 C 0.640625 -4.867188 0.816406 -5.582031 1.171875 -6.21875 C 1.523438 -6.851562 2.015625 -7.347656 2.640625 -7.703125 C 3.265625 -8.066406 3.96875 -8.25 4.75 -8.25 C 5.53125 -8.25 6.222656 -8.066406 6.828125 -7.703125 C 7.441406 -7.347656 7.921875 -6.851562 8.265625 -6.21875 C 8.609375 -5.582031 8.78125 -4.851562 8.78125 -4.03125 Z M 4.75 -7 C 4.039062 -7 3.445312 -6.78125 2.96875 -6.34375 C 2.488281 -5.914062 2.207031 -5.351562 2.125 -4.65625 L 7.359375 -4.65625 C 7.273438 -5.34375 6.992188 -5.90625 6.515625 -6.34375 C 6.046875 -6.78125 5.457031 -7 4.75 -7 Z M 4.75 -7 "/></g></g></g><g fill="#000000" fill-opacity="1"><g transform="translate(272.475603, 47.234602)"><g><path d="M 1.859375 -12.421875 L 3.640625 -12.421875 L 3.640625 -1.546875 L 10.359375 -1.546875 L 10.359375 0 L 1.859375 0 Z M 1.859375 -12.421875 "/></g></g></g><g fill="#000000" fill-opacity="1"><g transform="translate(300.696945, 47.234602)"><g><path d="M 9.78125 -3.109375 L 3.171875 -3.109375 L 1.8125 0 L -0.015625 0 L 5.609375 -12.421875 L 7.359375 -12.421875 L 13.015625 0 L 11.140625 0 Z M 9.15625 -4.53125 L 6.484375 -10.609375 L 3.796875 -4.53125 Z M 9.15625 -4.53125 "/></g></g></g><g fill="#000000" fill-opacity="1"><g transform="translate(330.118347, 47.234602)"><g><path d="M 1.859375 -12.421875 L 3.640625 -12.421875 L 3.640625 0 L 1.859375 0 Z M 1.859375 -12.421875 "/></g></g></g><g fill="#000000" fill-opacity="1"><g transform="translate(352.449441, 47.234602)"><g><path d="M 12.546875 -12.421875 L 12.546875 0 L 11.09375 0 L 3.640625 -9.265625 L 3.640625 0 L 1.859375 0 L 1.859375 -12.421875 L 3.3125 -12.421875 L 10.78125 -3.15625 L 10.78125 -12.421875 Z M 12.546875 -12.421875 "/></g></g></g><g fill="#000000" fill-opacity="1"><g transform="translate(313.291921, 66.046117)"><g><path d="M 11.609375 -8.25 C 12.640625 -8.25 13.453125 -7.945312 14.046875 -7.34375 C 14.648438 -6.75 14.953125 -5.867188 14.953125 -4.703125 L 14.953125 0 L 13.484375 0 L 13.484375 -4.53125 C 13.484375 -5.320312 13.300781 -5.914062 12.9375 -6.3125 C 12.570312 -6.71875 12.050781 -6.921875 11.375 -6.921875 C 10.625 -6.921875 10.023438 -6.6875 9.578125 -6.21875 C 9.140625 -5.75 8.921875 -5.078125 8.921875 -4.203125 L 8.921875 0 L 7.4375 0 L 7.4375 -4.53125 C 7.4375 -5.320312 7.253906 -5.914062 6.890625 -6.3125 C 6.523438 -6.71875 6.003906 -6.921875 5.328125 -6.921875 C 4.578125 -6.921875 3.976562 -6.6875 3.53125 -6.21875 C 3.09375 -5.75 2.875 -5.078125 2.875 -4.203125 L 2.875 0 L 1.40625 0 L 1.40625 -8.171875 L 2.8125 -8.171875 L 2.8125 -6.953125 C 3.113281 -7.367188 3.503906 -7.6875 3.984375 -7.90625 C 4.472656 -8.132812 5.023438 -8.25 5.640625 -8.25 C 6.273438 -8.25 6.835938 -8.117188 7.328125 -7.859375 C 7.828125 -7.597656 8.207031 -7.222656 8.46875 -6.734375 C 8.78125 -7.203125 9.207031 -7.570312 9.75 -7.84375 C 10.300781 -8.113281 10.921875 -8.25 11.609375 -8.25 Z M 11.609375 -8.25 "/></g></g></g><g fill="#000000" fill-opacity="1"><g transform="translate(291.633553, 65.990406)"><g><path d="M 9.984375 -4.734375 C 9.609375 -3.765625 9.128906 -2.910156 8.546875 -2.171875 L 9.65625 -0.796875 L 8.671875 0.171875 L 7.578125 -1.1875 C 6.523438 -0.3125 5.296875 0.125 3.890625 0.125 C 2.828125 0.125 1.976562 -0.101562 1.34375 -0.5625 C 0.71875 -1.019531 0.40625 -1.640625 0.40625 -2.421875 C 0.40625 -3.148438 0.664062 -3.796875 1.1875 -4.359375 C 1.707031 -4.929688 2.53125 -5.488281 3.65625 -6.03125 C 3.382812 -6.382812 3.179688 -6.726562 3.046875 -7.0625 C 2.910156 -7.394531 2.84375 -7.738281 2.84375 -8.09375 C 2.84375 -8.9375 3.140625 -9.609375 3.734375 -10.109375 C 4.335938 -10.617188 5.101562 -10.875 6.03125 -10.875 C 6.78125 -10.875 7.382812 -10.695312 7.84375 -10.34375 C 8.300781 -9.988281 8.53125 -9.503906 8.53125 -8.890625 C 8.53125 -8.234375 8.300781 -7.664062 7.84375 -7.1875 C 7.382812 -6.71875 6.648438 -6.242188 5.640625 -5.765625 L 7.765625 -3.140625 C 8.191406 -3.710938 8.546875 -4.367188 8.828125 -5.109375 Z M 5.984375 -9.796875 C 5.441406 -9.796875 5.007812 -9.65625 4.6875 -9.375 C 4.363281 -9.09375 4.203125 -8.710938 4.203125 -8.234375 C 4.203125 -7.992188 4.257812 -7.742188 4.375 -7.484375 C 4.5 -7.234375 4.691406 -6.941406 4.953125 -6.609375 C 5.554688 -6.898438 6.023438 -7.15625 6.359375 -7.375 C 6.691406 -7.59375 6.925781 -7.804688 7.0625 -8.015625 C 7.195312 -8.234375 7.265625 -8.484375 7.265625 -8.765625 C 7.265625 -9.066406 7.148438 -9.3125 6.921875 -9.5 C 6.691406 -9.695312 6.378906 -9.796875 5.984375 -9.796875 Z M 3.984375 -1.109375 C 5.023438 -1.109375 5.96875 -1.453125 6.8125 -2.140625 L 4.34375 -5.15625 C 3.445312 -4.726562 2.8125 -4.328125 2.4375 -3.953125 C 2.0625 -3.585938 1.875 -3.160156 1.875 -2.671875 C 1.875 -2.203125 2.054688 -1.820312 2.421875 -1.53125 C 2.796875 -1.25 3.316406 -1.109375 3.984375 -1.109375 Z M 3.984375 -1.109375 "/></g></g></g></svg>